<?xml version="1.0" encoding="UTF-8"?>
<svg height="16px" viewBox="0 0 16 16" width="16px" xmlns="http://www.w3.org/2000/svg">
    <g fill="#241f31">
        <path d="m 4 2 c -2.214844 0 -4 1.785156 -4 4 v 3 c 0 2.214844 1.785156 4 4 4 h 8 c 2.214844 0 4 -1.785156 4 -4 v -3 c 0 -2.214844 -1.785156 -4 -4 -4 z m 1 2 c 0.554688 0 1 0.445312 1 1 v 1 h 1 c 0.554688 0 1 0.445312 1 1 s -0.445312 1 -1 1 h -1 v 1 c 0 0.554688 -0.445312 1 -1 1 s -1 -0.445312 -1 -1 v -1 h -1 c -0.554688 0 -1 -0.445312 -1 -1 s 0.445312 -1 1 -1 h 1 v -1 c 0 -0.554688 0.445312 -1 1 -1 z m 8 1 c 0.550781 0 1 0.449219 1 1 s -0.449219 1 -1 1 s -1 -0.449219 -1 -1 s 0.449219 -1 1 -1 z m -2 3 c 0.550781 0 1 0.449219 1 1 s -0.449219 1 -1 1 s -1 -0.449219 -1 -1 s 0.449219 -1 1 -1 z m 0 0"/>
        <path d="m 12 12 v 4 h -1 l -4 -4 z m 0 0"/>
    </g>
</svg>
