<?xml version="1.0" encoding="UTF-8"?>
<svg height="128px" viewBox="0 0 128 128" width="128px" xmlns="http://www.w3.org/2000/svg" xmlns:xlink="http://www.w3.org/1999/xlink">
    <linearGradient id="a" gradientUnits="userSpaceOnUse" x1="6.71098682361" x2="11.53716813227" y1="94.58584467386" y2="94.73301795103">
        <stop offset="0" stop-color="#9141ac"/>
        <stop offset="1" stop-color="#613583" stop-opacity="0"/>
    </linearGradient>
    <linearGradient id="b" gradientUnits="userSpaceOnUse" x1="121.03099113853" x2="116.01880933919" y1="95.03975493518" y2="94.97318417534">
        <stop offset="0" stop-color="#9141ac"/>
        <stop offset="1" stop-color="#9141ac" stop-opacity="0"/>
    </linearGradient>
    <path d="m 104.285156 29.277344 c -7.4375 -3.414063 -15.410156 -5.929688 -23.75 -7.367188 c -0.152344 -0.027344 -0.300781 0.039063 -0.378906 0.179688 c -1.027344 1.824218 -2.164062 4.203125 -2.957031 6.074218 c -8.96875 -1.34375 -17.890625 -1.34375 -26.675781 0 c -0.796876 -1.910156 -1.972657 -4.25 -3.003907 -6.074218 c -0.078125 -0.132813 -0.230469 -0.203125 -0.382812 -0.179688 c -8.332031 1.433594 -16.308594 3.949219 -23.75 7.367188 c -0.0625 0.027344 -0.117188 0.074218 -0.15625 0.132812 c -15.125 22.597656 -19.269531 44.640625 -17.234375 66.410156 c 0.007812 0.109376 0.066406 0.210938 0.148437 0.273438 c 0.960938 0.707031 1.917969 1.382812 2.875 2.039062 c 8.964844 6.132813 17.6875 10.023438 26.261719 12.6875 c 0.152344 0.046876 0.3125 -0.007812 0.410156 -0.132812 c 2.242188 -3.066406 4.246094 -6.296875 5.960938 -9.695312 c 0.101562 -0.199219 0.003906 -0.433594 -0.203125 -0.511719 c -3.171875 -1.207031 -6.195313 -2.671875 -9.101563 -4.339844 c -0.230468 -0.132813 -0.25 -0.460937 -0.039062 -0.621094 c 0.613281 -0.457031 1.226562 -0.933593 1.808594 -1.414062 c 0.105468 -0.089844 0.253906 -0.109375 0.378906 -0.054688 c 19.09375 8.71875 39.765625 8.71875 58.636718 0 c 0.125 -0.058593 0.273438 -0.039062 0.382813 0.046875 c 0.582031 0.484375 1.195313 0.964844 1.8125 1.421875 c 0.210937 0.160157 0.195313 0.488281 -0.035156 0.621094 c -2.90625 1.699219 -5.925781 3.132813 -9.105469 4.332031 c -0.207031 0.082032 -0.296875 0.320313 -0.195312 0.519532 c 1.75 3.394531 3.75 6.625 5.953124 9.691406 c 0.09375 0.128906 0.257813 0.183594 0.410157 0.136718 c 9.535156 -2.949218 19.203125 -7.398437 29.179687 -14.726562 c 0.089844 -0.0625 0.144532 -0.160156 0.152344 -0.269531 c 2.433594 -25.167969 -4.074219 -47.027344 -17.25 -66.410157 c -0.03125 -0.0625 -0.085938 -0.109374 -0.152344 -0.136718 z m -59.78125 53.289062 c -5.75 0 -10.488281 -5.277344 -10.488281 -11.761718 c 0 -6.480469 4.644531 -11.757813 10.488281 -11.757813 c 5.886719 0 10.578125 5.324219 10.484375 11.757813 c 0 6.484374 -4.644531 11.761718 -10.484375 11.761718 z m 38.769532 0 c -5.75 0 -10.488282 -5.277344 -10.488282 -11.761718 c 0 -6.480469 4.648438 -11.757813 10.488282 -11.757813 c 5.886718 0 10.578124 5.324219 10.484374 11.757813 c 0 6.484374 -4.597656 11.761718 -10.484374 11.761718 z m 0 0" fill="#813d9c"/>
    <path d="m 104.582031 24.46875 c -7.4375 -3.414062 -15.410156 -5.925781 -23.75 -7.367188 c -0.152343 -0.027343 -0.304687 0.042969 -0.382812 0.179688 c -1.023438 1.824219 -2.160157 4.207031 -2.957031 6.074219 c -8.964844 -1.339844 -17.890626 -1.339844 -26.671876 0 c -0.796874 -1.910157 -1.972656 -4.25 -3.003906 -6.074219 c -0.078125 -0.132812 -0.230468 -0.203125 -0.382812 -0.179688 c -8.332032 1.4375 -16.308594 3.949219 -23.75 7.367188 c -0.0625 0.027344 -0.117188 0.074219 -0.15625 0.132812 c -15.125 22.597657 -19.269532 44.640626 -17.238282 66.414063 c 0.011719 0.105469 0.070313 0.207031 0.152344 0.269531 c 9.980469 7.332032 19.648438 11.78125 29.136719 14.730469 c 0.152344 0.046875 -0.261719 5.011719 -0.164063 4.886719 c 12.507813 -8.632813 4.816407 -11.320313 6.535157 -14.71875 c 0.097656 -0.199219 0.003906 -0.433594 -0.203125 -0.511719 c -3.175782 -1.203125 -6.195313 -2.671875 -9.101563 -4.339844 c -0.230469 -0.132812 -0.25 -0.460937 -0.039062 -0.621093 c 0.613281 -0.457032 1.226562 -0.933594 1.808593 -1.414063 c 0.105469 -0.089844 0.253907 -0.105469 0.378907 -0.050781 c 19.09375 8.71875 39.765625 8.71875 58.636719 0 c 0.125 -0.0625 0.269531 -0.042969 0.382812 0.046875 c 0.582031 0.480469 1.195312 0.960937 1.8125 1.417969 c 0.210938 0.160156 0.195312 0.488281 -0.035156 0.621093 c -2.90625 1.699219 -5.925782 3.136719 -9.105469 4.335938 c -0.207031 0.078125 -0.296875 0.316406 -0.195313 0.515625 c 1.75 3.394531 -6.386718 6.054687 5.816407 14.640625 c 0.09375 0.132812 0.394531 -4.761719 0.546875 -4.808594 c 9.535156 -2.949219 19.199218 -7.398437 29.179687 -14.730469 c 0.089844 -0.0625 0.144531 -0.160156 0.152344 -0.265625 c 2.433594 -25.167969 -4.074219 -47.03125 -17.25 -66.414062 c -0.03125 -0.0625 -0.085937 -0.109375 -0.152344 -0.136719 z m -59.78125 53.289062 c -5.75 0 -10.488281 -5.277343 -10.488281 -11.757812 c 0 -6.484375 4.644531 -11.761719 10.488281 -11.761719 c 5.886719 0 10.574219 5.324219 10.484375 11.761719 c 0 6.480469 -4.644531 11.757812 -10.484375 11.757812 z m 38.769531 0 c -5.75 0 -10.488281 -5.277343 -10.488281 -11.757812 c 0 -6.484375 4.644531 -11.761719 10.488281 -11.761719 c 5.886719 0 10.578126 5.324219 10.484376 11.761719 c 0 6.480469 -4.597657 11.757812 -10.484376 11.757812 z m 0 0" fill="#c061cb"/>
    <path d="m 6.714844 96.519531 c -0.019532 -0.140625 0.035156 -5.007812 0.035156 -5.007812 l 2.410156 1.820312 l 0.082032 4.917969 z m 0 0" fill="url(#a)"/>
    <path d="m 121 96.496094 c 0.019531 -0.140625 -0.003906 -4.605469 -0.003906 -4.605469 l -2.511719 1.738281 l -0.003906 4.613282 z m 0 0" fill="url(#b)"/>
</svg>
