<?xml version="1.0" encoding="UTF-8"?>
<svg height="128px" viewBox="0 0 128 128" width="128px" xmlns="http://www.w3.org/2000/svg" xmlns:xlink="http://www.w3.org/1999/xlink">
    <filter id="a" height="100%" width="100%" x="0%" y="0%">
        <feColorMatrix color-interpolation-filters="sRGB" values="0 0 0 0 1 0 0 0 0 1 0 0 0 0 1 0 0 0 1 0"/>
    </filter>
    <linearGradient id="b" gradientTransform="matrix(-1.153846 0 0 0.952379 133.230774 -158.475506)" gradientUnits="userSpaceOnUse" x1="7.999999" x2="112" y1="244" y2="244">
        <stop offset="0" stop-color="#3547e6"/>
        <stop offset="0.0714286" stop-color="#4960fd"/>
        <stop offset="0.142857" stop-color="#3547e6"/>
        <stop offset="0.857143" stop-color="#3547e6"/>
        <stop offset="0.928571" stop-color="#495bfd"/>
        <stop offset="1" stop-color="#3547e6"/>
    </linearGradient>
    <linearGradient id="c" gradientTransform="matrix(-1 0 0 1 118 -172)" gradientUnits="userSpaceOnUse" x1="31.462524" x2="39" y1="285.997253" y2="285.997253">
        <stop offset="0" stop-color="#3547e6"/>
        <stop offset="0.469318" stop-color="#7582fd"/>
        <stop offset="1" stop-color="#3547e6"/>
    </linearGradient>
    <clipPath id="d">
        <path d="m 50 100 h 44 v 28 h -44 z m 0 0"/>
    </clipPath>
    <clipPath id="e">
        <rect height="128" width="128"/>
    </clipPath>
    <clipPath id="f">
        <rect height="128" width="128"/>
    </clipPath>
    <mask id="g">
        <g filter="url(#a)">
            <g clip-path="url(#f)" filter="url(#a)">
                <g clip-path="url(#e)">
                    <path d="m 100 32 h -72 c -13.253906 0 -24 10.746094 -24 24 v 32 c 0 13.253906 10.746094 24 24 24 h 72 c 13.253906 0 24 -10.746094 24 -24 v -32 c 0 -13.253906 -10.746094 -24 -24 -24 z m 0 0" fill="url(#b)"/>
                    <g clip-path="url(#d)">
                        <path d="m 94 100 v 12 h -4 c -2.210938 0 -4 1.789062 -4 4 v 7.582031 c 0 1.894531 -1.125 3.605469 -2.859375 4.355469 c -1.738281 0.75 -3.753906 0.398438 -5.132813 -0.898438 l -13.949218 -13.105468 c -1.324219 -1.242188 -3.070313 -1.933594 -4.882813 -1.933594 h -9.175781 v -12 z m 0 0" fill="url(#c)" fill-rule="evenodd"/>
                    </g>
                    <path d="m 94 106 v 2 h -4 c -2.210938 0 -4 1.789062 -4 4 v 7.640625 c 0 1.882813 -1.117188 3.585937 -2.84375 4.332031 c -1.730469 0.746094 -3.734375 0.394532 -5.105469 -0.890625 l -13.992187 -13.148437 c -1.324219 -1.242188 -3.070313 -1.933594 -4.882813 -1.933594 h -9.175781 v -2 z m 0 0" fill="#6473ec" fill-rule="evenodd"/>
                    <path d="m 100 24 h -72 c -13.253906 0 -24 10.746094 -24 24 v 36 c 0 13.253906 10.746094 24 24 24 h 72 c 13.253906 0 24 -10.746094 24 -24 v -36 c 0 -13.253906 -10.746094 -24 -24 -24 z m 0 0" fill="#6473ec"/>
                    <path d="m 60 70 c 0 13.253906 -10.746094 24 -24 24 s -24 -10.746094 -24 -24 s 10.746094 -24 24 -24 s 24 10.746094 24 24 z m 0 0" fill="#3344d6"/>
                    <path d="m 60 72 c 0 13.253906 -10.746094 24 -24 24 s -24 -10.746094 -24 -24 s 10.746094 -24 24 -24 s 24 10.746094 24 24 z m 0 0" fill="#5263ef"/>
                    <path d="m 116 70 c 0 13.253906 -10.746094 24 -24 24 s -24 -10.746094 -24 -24 s 10.746094 -24 24 -24 s 24 10.746094 24 24 z m 0 0" fill="#3344d6"/>
                    <path d="m 116 72 c 0 13.253906 -10.746094 24 -24 24 s -24 -10.746094 -24 -24 s 10.746094 -24 24 -24 s 24 10.746094 24 24 z m 0 0" fill="#5263ef"/>
                    <path d="m 52 34 h 7 c 1.65625 0 3 1.34375 3 3 s -1.34375 3 -3 3 h -7 c -1.65625 0 -3 -1.34375 -3 -3 s 1.34375 -3 3 -3 z m 0 0" fill="#4657e7"/>
                    <path d="m 52 32 h 7 c 1.65625 0 3 1.34375 3 3 s -1.34375 3 -3 3 h -7 c -1.65625 0 -3 -1.34375 -3 -3 s 1.34375 -3 3 -3 z m 0 0" fill="#bcc3f8"/>
                    <path d="m 69 34 h 7 c 1.65625 0 3 1.34375 3 3 s -1.34375 3 -3 3 h -7 c -1.65625 0 -3 -1.34375 -3 -3 s 1.34375 -3 3 -3 z m 0 0" fill="#4657e7"/>
                    <path d="m 69 32 h 7 c 1.65625 0 3 1.34375 3 3 s -1.34375 3 -3 3 h -7 c -1.65625 0 -3 -1.34375 -3 -3 s 1.34375 -3 3 -3 z m 0 0" fill="#bcc3f8"/>
                    <path d="m 24 69 h 24 c 1.105469 0 2 0.894531 2 2 v 4 c 0 1.105469 -0.894531 2 -2 2 h -24 c -1.105469 0 -2 -0.894531 -2 -2 v -4 c 0 -1.105469 0.894531 -2 2 -2 z m 0 0" fill="#3344d6"/>
                    <path d="m 40 61 v 24 c 0 1.105469 -0.894531 2 -2 2 h -4 c -1.105469 0 -2 -0.894531 -2 -2 v -24 c 0 -1.105469 0.894531 -2 2 -2 h 4 c 1.105469 0 2 0.894531 2 2 z m 0 0" fill="#3344d6"/>
                    <path d="m 24 67 h 24 c 1.105469 0 2 0.894531 2 2 v 4 c 0 1.105469 -0.894531 2 -2 2 h -24 c -1.105469 0 -2 -0.894531 -2 -2 v -4 c 0 -1.105469 0.894531 -2 2 -2 z m 0 0" fill="#bcc3f8"/>
                    <path d="m 40 59 v 24 c 0 1.105469 -0.894531 2 -2 2 h -4 c -1.105469 0 -2 -0.894531 -2 -2 v -24 c 0 -1.105469 0.894531 -2 2 -2 h 4 c 1.105469 0 2 0.894531 2 2 z m 0 0" fill="#bcc3f8"/>
                    <path d="m 90.75 80 c 0 3.867188 -3.132812 7 -7 7 s -7 -3.132812 -7 -7 s 3.132812 -7 7 -7 s 7 3.132812 7 7 z m 0 0" fill="#9e7308"/>
                    <path d="m 90.75 78 c 0 3.867188 -3.132812 7 -7 7 s -7 -3.132812 -7 -7 s 3.132812 -7 7 -7 s 7 3.132812 7 7 z m 0 0" fill="#f5c211"/>
                    <path d="m 107.75 65 c 0 3.867188 -3.132812 7 -7 7 s -7 -3.132812 -7 -7 s 3.132812 -7 7 -7 s 7 3.132812 7 7 z m 0 0" fill="#9e7308"/>
                    <path d="m 107.75 63 c 0 3.867188 -3.132812 7 -7 7 s -7 -3.132812 -7 -7 s 3.132812 -7 7 -7 s 7 3.132812 7 7 z m 0 0" fill="#f5c211"/>
                </g>
            </g>
        </g>
    </mask>
    <mask id="h">
        <g filter="url(#a)">
            <rect fill-opacity="0.8" height="184.32" width="184.32" x="-28.16" y="-28.16"/>
        </g>
    </mask>
    <linearGradient id="i" gradientTransform="matrix(0 0.37 -0.98462 0 295.38501 -30.360001)" gradientUnits="userSpaceOnUse" x1="300" x2="428" y1="235" y2="235">
        <stop offset="0" stop-color="#f9f06b"/>
        <stop offset="1" stop-color="#f5c211"/>
    </linearGradient>
    <clipPath id="j">
        <rect height="128" width="128"/>
    </clipPath>
    <clipPath id="k">
        <rect height="128" width="128"/>
    </clipPath>
    <path d="m 100 32 h -72 c -13.253906 0 -24 10.746094 -24 24 v 32 c 0 13.253906 10.746094 24 24 24 h 72 c 13.253906 0 24 -10.746094 24 -24 v -32 c 0 -13.253906 -10.746094 -24 -24 -24 z m 0 0" fill="url(#b)"/>
    <path d="m 94 100 v 12 h -4 c -2.210938 0 -4 1.789062 -4 4 v 7.582031 c 0 1.894531 -1.125 3.605469 -2.859375 4.355469 c -1.738281 0.75 -3.753906 0.398438 -5.132813 -0.898438 l -13.949218 -13.105468 c -1.324219 -1.242188 -3.070313 -1.933594 -4.882813 -1.933594 h -9.175781 v -12 z m 0 0" fill="url(#c)" fill-rule="evenodd"/>
    <path d="m 94 106 v 2 h -4 c -2.210938 0 -4 1.789062 -4 4 v 7.640625 c 0 1.882813 -1.117188 3.585937 -2.84375 4.332031 c -1.730469 0.746094 -3.734375 0.394532 -5.105469 -0.890625 l -13.992187 -13.148437 c -1.324219 -1.242188 -3.070313 -1.933594 -4.882813 -1.933594 h -9.175781 v -2 z m 0 0" fill="#6473ec" fill-rule="evenodd"/>
    <path d="m 100 24 h -72 c -13.253906 0 -24 10.746094 -24 24 v 36 c 0 13.253906 10.746094 24 24 24 h 72 c 13.253906 0 24 -10.746094 24 -24 v -36 c 0 -13.253906 -10.746094 -24 -24 -24 z m 0 0" fill="#6473ec"/>
    <path d="m 60 70 c 0 13.253906 -10.746094 24 -24 24 s -24 -10.746094 -24 -24 s 10.746094 -24 24 -24 s 24 10.746094 24 24 z m 0 0" fill="#3344d6"/>
    <path d="m 60 72 c 0 13.253906 -10.746094 24 -24 24 s -24 -10.746094 -24 -24 s 10.746094 -24 24 -24 s 24 10.746094 24 24 z m 0 0" fill="#5263ef"/>
    <path d="m 116 70 c 0 13.253906 -10.746094 24 -24 24 s -24 -10.746094 -24 -24 s 10.746094 -24 24 -24 s 24 10.746094 24 24 z m 0 0" fill="#3344d6"/>
    <path d="m 116 72 c 0 13.253906 -10.746094 24 -24 24 s -24 -10.746094 -24 -24 s 10.746094 -24 24 -24 s 24 10.746094 24 24 z m 0 0" fill="#5263ef"/>
    <path d="m 52 34 h 7 c 1.65625 0 3 1.34375 3 3 s -1.34375 3 -3 3 h -7 c -1.65625 0 -3 -1.34375 -3 -3 s 1.34375 -3 3 -3 z m 0 0" fill="#4657e7"/>
    <path d="m 52 32 h 7 c 1.65625 0 3 1.34375 3 3 s -1.34375 3 -3 3 h -7 c -1.65625 0 -3 -1.34375 -3 -3 s 1.34375 -3 3 -3 z m 0 0" fill="#bcc3f8"/>
    <path d="m 69 34 h 7 c 1.65625 0 3 1.34375 3 3 s -1.34375 3 -3 3 h -7 c -1.65625 0 -3 -1.34375 -3 -3 s 1.34375 -3 3 -3 z m 0 0" fill="#4657e7"/>
    <path d="m 69 32 h 7 c 1.65625 0 3 1.34375 3 3 s -1.34375 3 -3 3 h -7 c -1.65625 0 -3 -1.34375 -3 -3 s 1.34375 -3 3 -3 z m 0 0" fill="#bcc3f8"/>
    <path d="m 24 69 h 24 c 1.105469 0 2 0.894531 2 2 v 4 c 0 1.105469 -0.894531 2 -2 2 h -24 c -1.105469 0 -2 -0.894531 -2 -2 v -4 c 0 -1.105469 0.894531 -2 2 -2 z m 0 0" fill="#3344d6"/>
    <path d="m 40 61 v 24 c 0 1.105469 -0.894531 2 -2 2 h -4 c -1.105469 0 -2 -0.894531 -2 -2 v -24 c 0 -1.105469 0.894531 -2 2 -2 h 4 c 1.105469 0 2 0.894531 2 2 z m 0 0" fill="#3344d6"/>
    <path d="m 24 67 h 24 c 1.105469 0 2 0.894531 2 2 v 4 c 0 1.105469 -0.894531 2 -2 2 h -24 c -1.105469 0 -2 -0.894531 -2 -2 v -4 c 0 -1.105469 0.894531 -2 2 -2 z m 0 0" fill="#bcc3f8"/>
    <path d="m 40 59 v 24 c 0 1.105469 -0.894531 2 -2 2 h -4 c -1.105469 0 -2 -0.894531 -2 -2 v -24 c 0 -1.105469 0.894531 -2 2 -2 h 4 c 1.105469 0 2 0.894531 2 2 z m 0 0" fill="#bcc3f8"/>
    <path d="m 90.75 80 c 0 3.867188 -3.132812 7 -7 7 s -7 -3.132812 -7 -7 s 3.132812 -7 7 -7 s 7 3.132812 7 7 z m 0 0" fill="#9e7308"/>
    <path d="m 90.75 78 c 0 3.867188 -3.132812 7 -7 7 s -7 -3.132812 -7 -7 s 3.132812 -7 7 -7 s 7 3.132812 7 7 z m 0 0" fill="#f5c211"/>
    <path d="m 107.75 65 c 0 3.867188 -3.132812 7 -7 7 s -7 -3.132812 -7 -7 s 3.132812 -7 7 -7 s 7 3.132812 7 7 z m 0 0" fill="#9e7308"/>
    <path d="m 107.75 63 c 0 3.867188 -3.132812 7 -7 7 s -7 -3.132812 -7 -7 s 3.132812 -7 7 -7 s 7 3.132812 7 7 z m 0 0" fill="#f5c211"/>
    <g mask="url(#g)">
        <g clip-path="url(#k)">
            <g mask="url(#h)">
                <g clip-path="url(#j)">
                    <path d="m 128 80.640625 v 47.359375 h -128 v -47.359375 z m 0 0" fill="url(#i)"/>
                    <path d="m 13.308594 80.640625 l 47.355468 47.359375 h 21.214844 l -47.359375 -47.359375 z m 42.421875 0 l 47.363281 47.359375 h 21.214844 l -47.363282 -47.359375 z m 42.429687 0 l 29.839844 29.839844 v -21.210938 l -8.628906 -8.628906 z m -98.160156 7.90625 v 21.214844 l 18.238281 18.238281 h 21.214844 z m 0 0"/>
                </g>
            </g>
        </g>
    </g>
</svg>
