<?xml version="1.0" encoding="UTF-8"?>
<svg xmlns="http://www.w3.org/2000/svg" height="16px" viewBox="0 0 16 16" width="16px"><g fill="#222222"><path d="m 2.5 2 c -1.367188 0 -2.5 1.132812 -2.5 2.5 v 7 c 0 1.367188 1.132812 2.5 2.5 2.5 h 4 c 1.367188 0 2.5 -1.132812 2.5 -2.5 v -0.5 h 0.085938 l 2.414062 2.414062 l 1.5 -1.5 v 0.585938 c 0 0.828125 0.671875 1.5 1.5 1.5 s 1.5 -0.671875 1.5 -1.5 v -9 c 0 -0.828125 -0.671875 -1.5 -1.5 -1.5 s -1.5 0.671875 -1.5 1.5 v 1.5 h -4 v -0.5 c 0 -1.367188 -1.132812 -2.5 -2.5 -2.5 z m 0 2 h 4 c 0.289062 0 0.5 0.210938 0.5 0.5 v 2.5 h 8 v 3 h -0.085938 l -1.414062 -1.414062 l -2 2 l -1.585938 -1.585938 h -2.914062 v 2.5 c 0 0.289062 -0.210938 0.5 -0.5 0.5 h -4 c -0.289062 0 -0.5 -0.210938 -0.5 -0.5 v -7 c 0 -0.289062 0.210938 -0.5 0.5 -0.5 z m 0 0"/><path d="m 3.5 6 c 0.277344 0 0.5 0.222656 0.5 0.5 v 3 c 0 0.277344 -0.222656 0.5 -0.5 0.5 s -0.5 -0.222656 -0.5 -0.5 v -3 c 0 -0.277344 0.222656 -0.5 0.5 -0.5 z m 0 0"/></g></svg>
